<svg xmlns="http://www.w3.org/2000/svg" xmlns:xlink="http://www.w3.org/1999/xlink" width="422" height="329" viewBox="0 0 422 329">
  <defs>
    <clipPath id="clip-path">
      <rect id="Rectangle_60" data-name="Rectangle 60" width="422" height="329" transform="translate(-1931 -1356)" fill="#fff" stroke="#707070" stroke-width="1"/>
    </clipPath>
    <linearGradient id="linear-gradient" x1="1.015" y1="0.037" x2="0.033" y2="0.919" gradientUnits="objectBoundingBox">
      <stop offset="0" stop-color="#6cc5e4"/>
      <stop offset="1" stop-color="#00acd3"/>
    </linearGradient>
  </defs>
  <g id="Mask_Group_2" data-name="Mask Group 2" transform="translate(1931 1356)" clip-path="url(#clip-path)">
    <g id="Group_964" data-name="Group 964">
      <g id="BACKGROUND_2" data-name="BACKGROUND 2" transform="translate(-2527.698 -1355.382)">
        <g id="Group_7" data-name="Group 7" transform="translate(526.551 -0.618)">
          <rect id="Rectangle_1" data-name="Rectangle 1" width="492.093" height="314.489" transform="translate(0.027 0)" fill="url(#linear-gradient)"/>
          <g id="Group_4" data-name="Group 4" transform="translate(287.039 34.654)">
            <path id="Path_1" data-name="Path 1" d="M994.321,56.554l48.564,56.2,30.46-18.912L1002.173,52.1a1.333,1.333,0,0,0-1.163-.091l-6.17,2.43A1.332,1.332,0,0,0,994.321,56.554Z" transform="translate(-974.299 -51.921)" fill="#0070a6"/>
            <path id="Path_2" data-name="Path 2" d="M994.984,55.679l-.142.056a1.333,1.333,0,0,0-.52,2.112l48.564,56.2,30.46-18.912-8.152-4.781C1051.737,103.1,1025.215,93.1,994.984,55.679Z" transform="translate(-974.299 -53.213)" fill="#155a88"/>
            <path id="Path_3" data-name="Path 3" d="M1101.006,237.861l-17.8-72.11,33.035-13.932-7.063,82.2a1.335,1.335,0,0,1-.6,1l-5.548,3.631A1.333,1.333,0,0,1,1101.006,237.861Z" transform="translate(-1004.969 -86.266)" fill="#0070a6"/>
            <path id="Path_4" data-name="Path 4" d="M1103.158,238.572l-.129.084a1.332,1.332,0,0,1-2.024-.8l-17.8-72.11,33.035-13.932-.809,9.417C1097.247,164.849,1090.086,192.275,1103.158,238.572Z" transform="translate(-1004.969 -86.266)" fill="#155a88"/>
            <path id="Path_5" data-name="Path 5" d="M983.8,161.278c36.871-23.805,88.439-57.844,101.418-63.768s28.579-3.736,31.369,1.66-8.794,21.645-18.346,26.06-100.366,41.394-109.611,45.386S973.137,168.634,983.8,161.278Z" transform="translate(-968.87 -66.379)" fill="#fff"/>
            <path id="Path_6" data-name="Path 6" d="M1056.086,138.214c-39.942,17.706-67.68,30.959-77.665,31.265-1.286,4.055,3.719,6.171,10.213,3.367,9.245-3.992,100.059-40.972,109.611-45.386s21.137-20.664,18.346-26.06a4.9,4.9,0,0,0-.641-.936C1111.28,111.279,1082.674,126.428,1056.086,138.214Z" transform="translate(-968.875 -68.61)" fill="#ededed" style="mix-blend-mode: multiply;isolation: isolate"/>
            <path id="Path_7" data-name="Path 7" d="M964.062,160.3,979.3,184.579l13.523-8.673-24.946-17.214a.539.539,0,0,0-.455-.074l-3.051.877A.54.54,0,0,0,964.062,160.3Z" transform="translate(-963.979 -88.597)" fill="#056798"/>
            <path id="Path_8" data-name="Path 8" d="M1003.937,232.327l-11.01-26.466,14.892-6.024-.366,30.306a.539.539,0,0,1-.2.415l-2.48,1.984A.539.539,0,0,1,1003.937,232.327Z" transform="translate(-973.932 -102.775)" fill="#056798"/>
            <g id="Group_1" data-name="Group 1" transform="translate(128.213 30.355)">
              <path id="Path_9" data-name="Path 9" d="M1173.93,122.859a18.99,18.99,0,0,0,3.744-7.373l-4.093,2.117A18.689,18.689,0,0,1,1173.93,122.859Z" transform="translate(-1164.254 -104.13)" fill="#8cd3f6"/>
              <path id="Path_10" data-name="Path 10" d="M1172.163,112.862l4.811-2.488a8.427,8.427,0,0,0-.683-3.847l-5.568,2.88A19.837,19.837,0,0,1,1172.163,112.862Z" transform="translate(-1163.271 -101.05)" fill="#8cd3f6"/>
              <path id="Path_11" data-name="Path 11" d="M1159.367,98.2a22.128,22.128,0,0,1,3.455,2.929l3.989-2.063A21.377,21.377,0,0,0,1159.367,98.2Z" transform="translate(-1159.367 -98.181)" fill="#8cd3f6"/>
              <path id="Path_12" data-name="Path 12" d="M1166.418,103.323A23.678,23.678,0,0,1,1168.4,106l5.557-2.875a8.461,8.461,0,0,0-2.724-2.291Z" transform="translate(-1161.791 -99.093)" fill="#8cd3f6"/>
            </g>
            <g id="Group_2" data-name="Group 2" transform="translate(38.761 33.505)">
              <path id="Path_13" data-name="Path 13" d="M1105.1,121.35l1.558,3.013,3.631-2.191-1.59-3.074Q1106.937,120.195,1105.1,121.35Z" transform="translate(-1051.257 -108.522)" fill="#8cd3f6"/>
              <path id="Path_14" data-name="Path 14" d="M1098.172,125.712l1.509,2.917,3.631-2.191-1.548-2.994Q1099.994,124.557,1098.172,125.712Z" transform="translate(-1048.877 -110.016)" fill="#8cd3f6"/>
              <path id="Path_15" data-name="Path 15" d="M1043.085,161.25l.9,1.751,3.632-2.191-.976-1.887Q1044.793,160.131,1043.085,161.25Z" transform="translate(-1029.937 -122.213)" fill="#8cd3f6"/>
              <path id="Path_16" data-name="Path 16" d="M1049.95,156.765l.994,1.923,3.631-2.191-1.063-2.055C1052.294,155.236,1051.1,156.013,1049.95,156.765Z" transform="translate(-1032.298 -120.673)" fill="#8cd3f6"/>
              <path id="Path_17" data-name="Path 17" d="M1070.575,143.373l1.242,2.4,3.631-2.191-1.3-2.517Q1072.35,142.224,1070.575,143.373Z" transform="translate(-1039.389 -116.074)" fill="#8cd3f6"/>
              <path id="Path_18" data-name="Path 18" d="M1056.819,152.291l1.081,2.089,3.631-2.191-1.146-2.216Q1058.571,151.15,1056.819,152.291Z" transform="translate(-1034.659 -119.136)" fill="#8cd3f6"/>
              <path id="Path_19" data-name="Path 19" d="M1077.462,138.933l1.316,2.546,3.631-2.191-1.372-2.654Q1079.248,137.783,1077.462,138.933Z" transform="translate(-1041.756 -114.55)" fill="#8cd3f6"/>
              <path id="Path_20" data-name="Path 20" d="M1084.356,134.507l1.387,2.681,3.631-2.191-1.439-2.78Q1086.153,133.355,1084.356,134.507Z" transform="translate(-1044.127 -113.032)" fill="#8cd3f6"/>
              <path id="Path_21" data-name="Path 21" d="M1091.259,130.1l1.451,2.805,3.631-2.191-1.5-2.894Q1093.067,128.946,1091.259,130.1Z" transform="translate(-1046.5 -111.52)" fill="#8cd3f6"/>
              <path id="Path_22" data-name="Path 22" d="M1063.694,147.826l1.163,2.249,3.631-2.191-1.227-2.37Q1065.459,146.681,1063.694,147.826Z" transform="translate(-1037.023 -117.603)" fill="#8cd3f6"/>
              <path id="Path_23" data-name="Path 23" d="M1036.225,165.743l.813,1.572,3.631-2.19-.886-1.713Z" transform="translate(-1027.579 -123.756)" fill="#8cd3f6"/>
              <path id="Path_24" data-name="Path 24" d="M1126,108.55l1.622,3.136,3.631-2.191-1.6-3.085C1128.553,107.043,1127.327,107.76,1126,108.55Z" transform="translate(-1058.445 -104.159)" fill="#8cd3f6"/>
              <path id="Path_25" data-name="Path 25" d="M1136.225,102.98c-.855.425-1.922,1-3.161,1.7l1.582,3.059,3.078-1.857Z" transform="translate(-1060.873 -102.98)" fill="#8cd3f6"/>
              <path id="Path_26" data-name="Path 26" d="M1119,112.748l1.621,3.133,3.631-2.191-1.624-3.14C1121.486,111.237,1120.273,111.971,1119,112.748Z" transform="translate(-1056.039 -105.583)" fill="#8cd3f6"/>
              <path id="Path_27" data-name="Path 27" d="M1029.37,170.246l.717,1.387,3.631-2.19-.793-1.534C1031.589,168.786,1030.4,169.571,1029.37,170.246Z" transform="translate(-1025.222 -125.303)" fill="#8cd3f6"/>
              <path id="Path_28" data-name="Path 28" d="M1023.049,174.53l.659,1.19,3.243-1.957-.7-1.347C1024.216,173.759,1023.049,174.53,1023.049,174.53Z" transform="translate(-1023.049 -126.852)" fill="#8cd3f6"/>
              <path id="Path_29" data-name="Path 29" d="M1112.039,117.024l1.6,3.087,3.631-2.191-1.617-3.127Q1113.906,115.864,1112.039,117.024Z" transform="translate(-1053.644 -107.042)" fill="#8cd3f6"/>
            </g>
            <g id="Group_3" data-name="Group 3" transform="translate(43.82 55.258)">
              <path id="Path_30" data-name="Path 30" d="M1121.6,153.538l-1.558-3.013,3.886-1.7,1.59,3.073Q1123.6,152.7,1121.6,153.538Z" transform="translate(-1061.452 -140.496)" fill="#8cd3f6"/>
              <path id="Path_31" data-name="Path 31" d="M1114.054,156.715l-1.509-2.917,3.886-1.7,1.548,2.994Q1116.049,155.894,1114.054,156.715Z" transform="translate(-1058.877 -141.621)" fill="#8cd3f6"/>
              <path id="Path_32" data-name="Path 32" d="M1053.508,181.731l-.9-1.75,3.886-1.7.976,1.887C1056.094,180.712,1054.772,181.233,1053.508,181.731Z" transform="translate(-1038.268 -150.622)" fill="#8cd3f6"/>
              <path id="Path_33" data-name="Path 33" d="M1061.09,178.631l-.995-1.923,3.887-1.7,1.063,2.055C1063.693,177.6,1062.371,178.125,1061.09,178.631Z" transform="translate(-1040.844 -149.497)" fill="#8cd3f6"/>
              <path id="Path_34" data-name="Path 34" d="M1083.816,169.291l-1.242-2.4,3.886-1.7,1.3,2.516Q1085.779,168.5,1083.816,169.291Z" transform="translate(-1048.572 -146.122)" fill="#8cd3f6"/>
              <path id="Path_35" data-name="Path 35" d="M1068.669,175.524l-1.081-2.089,3.887-1.7,1.146,2.216Q1070.611,174.753,1068.669,175.524Z" transform="translate(-1043.42 -148.372)" fill="#8cd3f6"/>
              <path id="Path_36" data-name="Path 36" d="M1091.383,166.163l-1.317-2.546,3.887-1.7,1.373,2.654Q1093.354,165.37,1091.383,166.163Z" transform="translate(-1051.148 -144.996)" fill="#8cd3f6"/>
              <path id="Path_37" data-name="Path 37" d="M1098.946,163.025l-1.387-2.681,3.887-1.7,1.438,2.781Q1100.924,162.224,1098.946,163.025Z" transform="translate(-1053.724 -143.871)" fill="#8cd3f6"/>
              <path id="Path_38" data-name="Path 38" d="M1106.5,159.876l-1.451-2.806,3.887-1.7,1.5,2.9Q1108.49,159.066,1106.5,159.876Z" transform="translate(-1056.301 -142.746)" fill="#8cd3f6"/>
              <path id="Path_39" data-name="Path 39" d="M1076.244,172.411l-1.163-2.249,3.887-1.7,1.226,2.37Z" transform="translate(-1045.996 -147.247)" fill="#8cd3f6"/>
              <path id="Path_40" data-name="Path 40" d="M1045.923,184.825l-.813-1.572,3.887-1.7.886,1.713Z" transform="translate(-1035.692 -151.748)" fill="#8cd3f6"/>
              <path id="Path_41" data-name="Path 41" d="M1144.137,143.843l-1.622-3.136,3.886-1.7,1.6,3.085C1146.841,142.632,1145.547,143.217,1144.137,143.843Z" transform="translate(-1069.181 -137.12)" fill="#8cd3f6"/>
              <path id="Path_42" data-name="Path 42" d="M1154.8,139.028c-.841.452-1.927.99-3.211,1.6l-1.582-3.059,3.294-1.439Z" transform="translate(-1071.757 -136.13)" fill="#8cd3f6"/>
              <path id="Path_43" data-name="Path 43" d="M1136.644,147.113l-1.621-3.133,3.887-1.7,1.624,3.14C1139.311,145.96,1138.011,146.525,1136.644,147.113Z" transform="translate(-1066.605 -138.245)" fill="#8cd3f6"/>
              <path id="Path_44" data-name="Path 44" d="M1038.334,187.914l-.717-1.387,3.887-1.7.793,1.534Z" transform="translate(-1033.116 -152.873)" fill="#8cd3f6"/>
              <path id="Path_45" data-name="Path 45" d="M1031.348,190.844l-.59-1.226,3.471-1.516.7,1.347C1032.652,190.337,1031.348,190.844,1031.348,190.844Z" transform="translate(-1030.758 -153.998)" fill="#8cd3f6"/>
              <path id="Path_46" data-name="Path 46" d="M1129.127,150.34l-1.6-3.087,3.886-1.7,1.618,3.127Q1131.152,149.486,1129.127,150.34Z" transform="translate(-1064.029 -139.37)" fill="#8cd3f6"/>
            </g>
            <path id="Path_47" data-name="Path 47" d="M965.908,159.291l-1.538.443a.54.54,0,0,0-.308.805L979.3,184.818l13.522-8.674-2.906-2.005C982.914,180.419,971.229,174.035,965.908,159.291Z" transform="translate(-963.979 -88.835)" fill="#155a88"/>
            <path id="Path_48" data-name="Path 48" d="M1006.021,231.541l-1.25,1a.539.539,0,0,1-.835-.214l-11.01-26.466,14.892-6.024-.043,3.53C998.606,205.453,997.063,218.679,1006.021,231.541Z" transform="translate(-973.932 -102.775)" fill="#155a88"/>
          </g>
          <path id="Path_49" data-name="Path 49" d="M997.609,263.241a8.372,8.372,0,0,0-15.764-.366,13.665,13.665,0,0,0-24.8,4.15,13.478,13.478,0,0,0,.4,7.781,220.741,220.741,0,0,1-56.867,2.559,28.633,28.633,0,0,0-40.431-32.62c-.014-.169-.018-.336-.04-.505A11.251,11.251,0,1,0,847.6,256.845a28.537,28.537,0,0,0-2.81,7.621,130.186,130.186,0,0,1-23.742-12.524,12.63,12.63,0,0,0-18.611-16.555c-7.566-9.122-12.39-19.5-13.655-30.925a13.965,13.965,0,1,0,3.615-27.679c.35-7.476,9.887-21.717,24.519-35.565-41.283,13.717-72.246,17.767-85.793,12.917a12.759,12.759,0,1,0-20.973-4.82l-.159-.054a3.521,3.521,0,0,0-4.412,2.021,27.726,27.726,0,1,1-40.23-34.131,4.84,4.84,0,0,0,1.981-5.9l-.033-.083a13.119,13.119,0,0,0,7.394,2.269c.19,0,.374-.02.562-.028q1.14-.195,2.309-.295A13.181,13.181,0,1,0,663.265,93.68C661.057,68.322,668.681,26.132,702.937,0H526.55V328.1H1018.7V252.805A168.49,168.49,0,0,1,997.609,263.241ZM663.986,45.78a1.9,1.9,0,1,1-1.9,1.9A1.9,1.9,0,0,1,663.986,45.78ZM653.352,51.1a9.495,9.495,0,1,1-9.495,9.495A9.5,9.5,0,0,1,653.352,51.1ZM639.934,19.918a2.552,2.552,0,1,1-2.552,2.551A2.552,2.552,0,0,1,639.934,19.918ZM619.52,99.449a5.1,5.1,0,1,1,5.1-5.1A5.1,5.1,0,0,1,619.52,99.449Zm20.16,19.63a13.293,13.293,0,1,1,13.292-13.293A13.293,13.293,0,0,1,639.68,119.079Zm74.058,47.093a4.178,4.178,0,1,1,4.177-4.177A4.178,4.178,0,0,1,713.739,166.172ZM818.746,270.9a4.209,4.209,0,0,1-2.345-.71,13.288,13.288,0,1,1-.583-6.568,4.228,4.228,0,1,1,2.928,7.278Zm15.333,20.973a3,3,0,1,1,3-3A3,3,0,0,1,834.079,291.874Zm129.045,17.632a15.749,15.749,0,1,1,15.749-15.749A15.749,15.749,0,0,1,963.124,309.506Zm25.81-21.436a2.625,2.625,0,1,1,2.625-2.625A2.625,2.625,0,0,1,988.934,288.07Z" transform="translate(-526.55 0.584)" fill="#fff"/>
          <circle id="Ellipse_1" data-name="Ellipse 1" cx="14.944" cy="14.944" r="14.944" transform="translate(156.158 42.009) rotate(-45)" fill="#fff"/>
          <path id="Path_50" data-name="Path 50" d="M798.454,12.212A23.823,23.823,0,1,1,754.168,0h40.927A23.743,23.743,0,0,1,798.454,12.212Z" transform="translate(-603.651 0.584)" fill="#fff"/>
          <path id="Path_51" data-name="Path 51" d="M756.769,70.194a4.383,4.383,0,1,0-4.383,4.383A4.383,4.383,0,0,0,756.769,70.194Z" transform="translate(-602.686 -22.042)" fill="#fff"/>
          <path id="Path_52" data-name="Path 52" d="M764.545,129.035a2.2,2.2,0,1,0-2.2-2.2A2.2,2.2,0,0,0,764.545,129.035Z" transform="translate(-607.618 -42.268)" fill="#fff"/>
          <path id="Path_53" data-name="Path 53" d="M856.076,216.987a2.637,2.637,0,1,0-2.637-2.637A2.637,2.637,0,0,0,856.076,216.987Z" transform="translate(-638.936 -72.204)" fill="#fff"/>
          <path id="Path_54" data-name="Path 54" d="M834.874,176.59a2.2,2.2,0,1,0-2.2-2.2A2.2,2.2,0,0,0,834.874,176.59Z" transform="translate(-631.797 -58.618)" fill="#fff"/>
          <circle id="Ellipse_2" data-name="Ellipse 2" cx="4.835" cy="4.835" r="4.835" transform="translate(239.556 142.585)" fill="#fff"/>
          <path id="Path_55" data-name="Path 55" d="M942.792,325.008a3.992,3.992,0,1,0,3.992-3.992A3.992,3.992,0,0,0,942.792,325.008Z" transform="translate(-669.655 -109.783)" fill="#fff"/>
          <path id="Path_56" data-name="Path 56" d="M978.25,351.372a2,2,0,1,0-2-2A2,2,0,0,0,978.25,351.372Z" transform="translate(-681.16 -118.847)" fill="#fff"/>
          <path id="Path_57" data-name="Path 57" d="M1107.934,377.065a4.091,4.091,0,1,0-4.583-3.53A4.092,4.092,0,0,0,1107.934,377.065Z" transform="translate(-724.844 -126.251)" fill="#fff"/>
          <path id="Path_58" data-name="Path 58" d="M1218.708,380.732a8.1,8.1,0,1,0-9.071-6.985A8.094,8.094,0,0,0,1218.708,380.732Z" transform="translate(-761.374 -124.77)" fill="#fff"/>
          <path id="Path_59" data-name="Path 59" d="M1244.274,380.243a2.442,2.442,0,1,0-2.737-2.108A2.443,2.443,0,0,0,1244.274,380.243Z" transform="translate(-772.358 -128.473)" fill="#fff"/>
          <path id="Path_60" data-name="Path 60" d="M755.465,172.373q-1.169.1-2.309.295A13.227,13.227,0,0,0,755.465,172.373Z" transform="translate(-604.458 -58.679)" fill="#fff"/>
          <path id="Path_61" data-name="Path 61" d="M833.32,42.727a2.674,2.674,0,1,1-2.674-2.674A2.674,2.674,0,0,1,833.32,42.727Z" transform="translate(-630.18 -13.187)" fill="#fff"/>
        </g>
      </g>
    </g>
  </g>
</svg>
